<svg xmlns="http://www.w3.org/2000/svg" viewBox="0 0 2000 2000"><defs><style>.cls-1{fill:#fff;}</style></defs><g id="White"><polygon class="cls-1" points="737.27 1506.11 286.93 1506.11 365.99 1570.39 737.27 1570.39 737.27 1506.11"/><polygon class="cls-1" points="1634.01 154.32 1634.01 1506.11 973.74 1506.11 765.57 1682.01 848.89 1759.11 1052.8 1570.39 1713.07 1570.39 1713.07 218.6 1634.01 154.32"/><path class="cls-1" d="M1580,208.32V1452.11H952.22l-215,203.71,28.3,26.19,208.17-175.9H1634V154.32H286.93V1506.11H737.27v-54H340.93V208.32H1580"/><path class="cls-1" d="M754.08,388.43V568.16l-65.84,59.18H463.39V329.25H688.24ZM666.29,417.8,645.8,399.39H551.18V557.2H645.8l20.49-18.41Z"/><path class="cls-1" d="M896,399.39V445h161.93v66.63H896V557.2h186.31v70.14H808.22V329.25h274.1v70.14Z"/><path class="cls-1" d="M1445.19,493.64v83.29l-56.09,50.41H1196.45l-51.21-46,60-53.91L1240.35,559h104.37l12.68-11.4V523l-7.8-7-144.37-7.46-51.21-46V379.66l56.09-50.41H1392l49.26,44.28-60,53.92-33.17-29.81h-93.64L1241.81,409v24.11l7.8,7L1394,447.61Z"/><path class="cls-1" d="M646.68,750.59V908.4h58.53v70.14H500.36V908.4h58.53V750.59H500.36V680.45H705.21v70.14Z"/><path class="cls-1" d="M1100.76,798.37V978.54h-66.82l-5.86-34.63-38.53,34.63H866.16l-65.85-59.18V739.63l65.85-59.18h168.75l53.16,47.78-60,53.92L993,750.59H908.59L888.11,769V890l20.48,18.41h72.67l31.7-28.49V860.62H950.53V798.37Z"/><path class="cls-1" d="M1448,680.45V978.54h-72.18L1240.25,802.76V978.54h-83.89V680.45h81.45L1364.13,844V680.45Z"/><path class="cls-1" d="M755.48,1100.66H653.54v227.95H565.75V1100.66H463.81v-70.14H755.48Z"/><path class="cls-1" d="M1356.36,1328.61l-113.15-136.77v136.77h-87.8V1030.52h87.8v134.14l112.17-134.14h100.48l-122.42,144.66,129.73,153.43Z"/><polygon class="cls-1" points="946.8 1258.47 926.32 1240.06 926.32 1030.52 838.53 1030.52 838.53 1269.59 904.19 1328.61 1072.84 1328.61 1072.84 1258.47 946.8 1258.47"/></g></svg>